<svg version="1.1" xmlns="http://www.w3.org/2000/svg" viewBox="0 0 169.72911780040204 212" width="169.72911780040204" height="212">
  <!-- svg-source:excalidraw -->
  
  <defs>
    <style>
      @font-face {
        font-family: "Virgil";
        src: url("https://excalidraw.com/Virgil.woff2");
      }
      @font-face {
        font-family: "Cascadia";
        src: url("https://excalidraw.com/Cascadia.woff2");
      }
    </style>
  </defs>
  <g stroke-linecap="round" transform="translate(36.11455890020102 10) rotate(0 49.5 42)"><path d="M0.69 -0.87 C27.37 0.48, 57.06 -1.95, 100.04 -0.43 M0.04 0.59 C26.26 1.24, 52.07 1.58, 98.06 -0.17 M100.83 -0.03 C97.77 21.29, 99.63 43.78, 100.44 84.73 M98.82 -0.42 C99.32 31.51, 100.33 62.28, 99.18 84.48 M99.53 83.75 C72.88 85.08, 43.98 84.65, -1.39 85.88 M99.89 84.66 C72.52 84.03, 44.79 83.17, -0.44 84.91 M-1.53 84.42 C0.42 48.55, -0.08 18.07, -0.67 1.86 M0.43 83.43 C-0.17 52.87, 0.05 21.6, -0.73 -0.39" stroke="#000000" stroke-width="1" fill="none"></path></g><g stroke-linecap="round" transform="translate(53.11455890020102 30) rotate(0 9 9)"><path d="M4.67 1.41 C4.67 1.41, 4.67 1.41, 4.67 1.41 M4.67 1.41 C4.67 1.41, 4.67 1.41, 4.67 1.41 M-0.77 13.86 C1.58 9.47, 5.16 7.4, 12.15 1.53 M-0.22 12.75 C2.82 8.8, 5.33 5.79, 10.69 0.6 M2.87 14.9 C6.95 12.74, 8.96 9.02, 14.79 1.83 M4.1 14.42 C5.87 11.61, 7.18 9.09, 14.78 2.68 M5.75 19.1 C10.76 13.95, 12.97 10.62, 17.81 3.07 M5.75 17.79 C10.98 13.33, 14.26 7.25, 16.83 3.94 M11.69 19.2 C12.49 14.57, 16.73 12.23, 19.11 9.68 M11.13 18.16 C12.81 16, 15.91 12.26, 19.13 9.67" stroke="#868e96" stroke-width="0.5" fill="none"></path><path d="M4.93 1.1 C6.32 0.31, 9.13 -0.5, 10.96 -0.06 C12.79 0.39, 14.68 2.04, 15.9 3.77 C17.11 5.49, 18.45 8.47, 18.26 10.29 C18.06 12.12, 16.1 13.43, 14.71 14.71 C13.32 15.99, 11.62 17.76, 9.92 17.98 C8.22 18.2, 6.27 17.15, 4.5 16.03 C2.74 14.9, -0.04 12.89, -0.67 11.23 C-1.29 9.56, -0.31 7.79, 0.75 6.02 C1.81 4.26, 4.93 1.52, 5.68 0.64 C6.44 -0.24, 5.34 0.54, 5.27 0.75 M12.53 1.99 C14.09 2.7, 16.43 4.97, 17.26 6.6 C18.09 8.23, 18.04 10.08, 17.51 11.76 C16.98 13.44, 15.58 15.89, 14.06 16.68 C12.54 17.48, 10.42 16.85, 8.38 16.54 C6.33 16.22, 3.41 15.98, 1.79 14.81 C0.17 13.63, -1.4 11.32, -1.35 9.47 C-1.3 7.62, 0.89 5.38, 2.09 3.73 C3.29 2.08, 4.1 -0.11, 5.86 -0.43 C7.61 -0.76, 11.24 1.41, 12.62 1.78 C13.99 2.14, 14.15 2.03, 14.09 1.77" stroke="#000000" stroke-width="1" fill="none"></path></g><g stroke-linecap="round" transform="translate(98.11455890020102 32) rotate(0 9 9)"><path d="M2.74 2.39 C2.74 2.39, 2.74 2.39, 2.74 2.39 M2.74 2.39 C2.74 2.39, 2.74 2.39, 2.74 2.39 M1.52 9.97 C4.82 5.61, 8.29 2.86, 9.82 0.8 M2.51 8.84 C4.84 5.82, 7.96 2.31, 9.82 -0.13 M1.57 12.87 C4.69 11.07, 9.98 5.39, 14.51 3.02 M2.53 14.69 C5.35 11.89, 8.28 9.73, 13.76 1.64 M4.56 18.24 C8.3 15.84, 11.26 10.83, 17.93 5.59 M5.89 16.99 C7.94 13.96, 10.87 11.04, 17.13 4.86 M7.91 20.13 C10.8 16.01, 15.16 13.93, 19.57 6.93 M9.54 20.3 C12.34 15.49, 14.84 11.7, 18.96 7.85" stroke="#868e96" stroke-width="0.5" fill="none"></path><path d="M8.97 -0.92 C10.92 -0.81, 13.34 1.3, 14.82 2.67 C16.29 4.03, 17.61 5.43, 17.82 7.27 C18.04 9.11, 17.02 11.84, 16.11 13.71 C15.2 15.58, 14.04 17.92, 12.37 18.51 C10.71 19.1, 8.16 18.28, 6.11 17.24 C4.06 16.2, 1.19 14.02, 0.09 12.27 C-1 10.52, -0.89 8.35, -0.46 6.72 C-0.03 5.09, 0.85 3.42, 2.66 2.48 C4.48 1.53, 8.74 1.31, 10.42 1.05 C12.11 0.78, 12.81 0.73, 12.75 0.89 M8.94 -0.65 C10.97 -0.53, 13.85 1.9, 15.46 3.32 C17.06 4.74, 18.6 6.1, 18.59 7.87 C18.58 9.65, 16.78 12.3, 15.4 13.96 C14.02 15.61, 12.16 17.45, 10.3 17.82 C8.43 18.19, 5.52 17.09, 4.21 16.15 C2.9 15.21, 3.18 13.63, 2.44 12.17 C1.7 10.71, -0.39 8.92, -0.21 7.38 C-0.04 5.85, 1.71 4.32, 3.51 2.96 C5.31 1.59, 9.72 -0.4, 10.59 -0.81 C11.47 -1.22, 9.18 0.06, 8.76 0.47" stroke="#000000" stroke-width="1" fill="none"></path></g><g stroke-linecap="round" transform="translate(74.11455890020102 92) rotate(0 12 49.5)"><path d="M0 0 C0 0, 0 0, 0 0 M0 0 C0 0, 0 0, 0 0 M-0.1 6.08 C1.38 5.24, 2.61 3.66, 5.28 -0.18 M0.01 6.51 C1.72 4.04, 3.35 2.21, 4.95 0.69 M-1.14 10.88 C4.57 6.39, 7.17 2.48, 10.8 -0.11 M0.25 11.37 C3.68 6.96, 8.06 2.81, 11.33 0.31 M0.24 16.78 C4.46 11.42, 11.37 6.47, 14.2 -1.26 M0.51 18.97 C2.31 15.5, 6.25 10.39, 14.84 -0.57 M-0.79 25.14 C7.22 17, 10.97 10.57, 21.86 -1.47 M-0.62 24.59 C8.76 15.2, 16.57 5.89, 20.56 -0.77 M-1.06 32.28 C6.92 25.81, 9.54 17.65, 27.59 0.68 M-0.97 29.54 C9.62 17.58, 20.19 6.68, 25.59 1.82 M-0.64 35.83 C5.64 29.82, 15.85 18.27, 27.11 7.68 M0.35 36.11 C7.98 28.15, 14.88 19.53, 25.45 8.2 M-0.83 41.45 C9.34 31.24, 21.69 21.26, 26.29 14.36 M0.41 41.76 C4.98 35.55, 10.68 29.41, 26.45 12.13 M0.23 47.74 C5.58 40.75, 13.92 34.36, 26.32 18 M0.8 48.6 C10.44 36.97, 18.67 26.09, 25.92 19.71 M0.4 53.63 C7.36 44.09, 14.47 35.16, 26.6 27.15 M-0.42 54.24 C4.6 48.64, 11.28 42.79, 25.1 26.71 M-1.35 59.17 C9.75 52.67, 15.71 39.78, 27.04 32.63 M0.37 60.96 C8.11 51.16, 16.93 41.45, 26.5 30.95 M-0.04 68.86 C9.64 54.96, 21.43 46.09, 24.46 36.44 M0.28 66.62 C5.93 61.43, 10.6 55.33, 26.29 37.78 M-0.35 72.66 C6.67 64.23, 11.92 58.8, 25.43 43.2 M0.31 72.08 C8.88 62.78, 16.96 54.47, 26.24 42.89 M1.71 80.89 C9.83 68.29, 16.91 57.74, 27.39 48.85 M0.71 79.57 C8.03 69.31, 16.34 60.15, 24.81 49.57 M1.75 85.69 C9.38 75.06, 21.06 62.88, 23.51 56.07 M-0.1 84.62 C8.52 76.51, 15.1 67.95, 25.07 55.51 M-1.96 91.7 C8.75 82.98, 16.47 72.55, 27.09 63.23 M0.59 92.24 C9 80.93, 19.28 70.52, 25.09 62.31 M-1.6 97.48 C8.54 87.84, 13.55 83.41, 25.83 67.31 M0.7 98.78 C5.88 91.48, 11.45 84.45, 25.33 67.81 M0.52 100.22 C9.27 93.86, 13.35 85.73, 24.79 73.36 M2.74 102.07 C10.9 91.04, 19.65 81.62, 25.54 74.02 M6.37 98.91 C11.87 96.61, 17.73 87.57, 25.46 81.2 M8.14 101.17 C13.87 92.99, 19.9 86.49, 24.89 81.29 M11.88 102.03 C15.83 97.22, 20.07 92.49, 24.64 86.8 M12.09 101.45 C16.12 97.11, 19.84 93.83, 24.91 86.25 M18.67 99.89 C21 97.22, 23.3 94.28, 25.1 92.91 M17.9 100.66 C20.16 98.25, 22.14 96.46, 25.15 92.22" stroke="#868e96" stroke-width="0.5" fill="none"></path><path d="M-1.06 -0.02 C5.33 -0.91, 12.38 1.24, 24.88 0.05 M0.15 -0.89 C4.53 1.18, 9.95 -0.06, 24.23 -0.02 M23.15 0.38 C23.07 38.03, 24.08 72.61, 23.13 97.51 M24.75 -0.47 C24.03 26.18, 24.74 53.19, 23.68 99.63 M25.53 99.17 C17.13 97.46, 7.68 96.97, -1.88 97.4 M24.51 98.91 C13.97 99.83, 5.57 98.87, 0.23 99.05 M-1.38 100.03 C-0.8 68.9, 1.5 39.23, -1.57 -1.64 M0.21 98.23 C1.66 79.37, 0.16 57.91, 0.57 -0.44" stroke="#000000" stroke-width="1" fill="none"></path></g><g stroke-linecap="round" transform="translate(31.11455890020102 122) rotate(0 55 12.5)"><path d="M0 0 C0 0, 0 0, 0 0 M0 0 C0 0, 0 0, 0 0 M-0.88 6.9 C1.21 4.77, 2.62 3.23, 5.59 1.07 M-0.47 6.21 C1.03 5.28, 2.58 3.66, 5.24 0.04 M-1.09 10.52 C1.72 7.64, 4.84 7.26, 9.09 -0.67 M-0.34 11.76 C3.97 7.75, 8.53 3.06, 10.04 0.55 M-0.77 20.39 C2.42 12.49, 7.07 8.94, 16.07 0.51 M-0.59 18.25 C5.28 10.86, 11.4 4.96, 16.25 -0.62 M-0.39 22.76 C7.38 17.6, 14.79 7.18, 22.92 0.75 M-0.63 24.69 C8.83 14.58, 15.11 7.22, 21.81 0.4 M2.63 26.05 C10.92 17.15, 19.48 11.73, 25.11 2.11 M3.38 27.52 C11.11 18.04, 21.43 6.29, 25.51 -0.59 M6.81 28.16 C14.48 20.2, 20.27 16.24, 31.6 -0.9 M8.1 26.96 C14.15 18.97, 21.65 12.3, 31.71 0.15 M11.41 28.85 C21.52 17.57, 33.38 6.85, 35.53 1.27 M14.01 27.99 C21.41 17.11, 29.75 8.73, 36.32 0.52 M19.24 26.34 C24.03 19.3, 30.79 11.99, 41.72 1.82 M19.23 26.58 C26.02 19.97, 31.99 11.38, 42.38 -0.19 M23.05 29.06 C30.11 20.14, 36.38 12.21, 45.81 0.33 M24.02 27.77 C29.93 21.25, 35.04 14.95, 48.12 0.82 M31.14 26.28 C35.84 21.47, 42.13 12.17, 53.76 -0.55 M29.36 27.89 C37.42 17.01, 48 7.5, 52.6 -0.99 M36.4 28.86 C43.52 18.47, 51.13 6.88, 56.95 -0.42 M34.02 27.68 C40.49 19.92, 46.01 13.44, 57.8 0.7 M41.22 28.65 C45.22 21.29, 52.52 10.97, 63.72 -0.47 M38.55 27.22 C47.29 19.71, 52.7 11.74, 64.16 0.16 M45.85 27.41 C49.12 20.71, 55.7 12.59, 70.46 -0.74 M45.6 27.31 C53.35 18.51, 61.02 8.2, 68.74 -0.18 M50.7 27.81 C57.25 20.05, 66.03 9.7, 73.16 0.54 M49.32 27.9 C58.89 16.76, 68.29 5.26, 74.79 -0.59 M55.32 26.81 C61.96 18.73, 70.9 8.78, 78.43 1.62 M56.31 28 C65.03 16.5, 74.26 6.16, 79.83 0.11 M61.36 26.39 C65.66 18.65, 74.82 13.75, 83.14 -2.05 M61.69 27.8 C69.12 17.06, 77.51 6.89, 85.25 -0.3 M68.25 26.17 C72.7 19.62, 80.72 8.77, 89.43 0.85 M66.71 27.87 C71.38 20.91, 77.22 15.92, 90.42 0.74 M72.17 26.19 C74.94 20.75, 83.04 17.69, 96.29 -1.81 M70.84 27.28 C79.19 19.48, 86.05 11.25, 96.26 -0.28 M77.64 27.53 C84.96 17.33, 91.04 11.03, 102.6 1.11 M77.34 26.8 C85.77 18.18, 93.4 8.62, 101.35 -0.82 M80.61 27.01 C91.43 18.84, 100.49 8.39, 106.73 0.66 M81.41 27 C87.7 20.52, 93.68 14.15, 105.52 -1.08 M88 25.91 C94.79 19.11, 106.37 8.55, 108.92 -0.71 M87.72 27.45 C93.69 20.56, 98.54 14.72, 111.28 0.89 M92.74 28.62 C98.65 20.42, 102.49 14.25, 112.24 6.52 M92.54 26.85 C96.03 22.38, 100.75 17.44, 110.82 7.33 M97.41 27.31 C104.05 20.83, 108.45 17.21, 109.48 12.11 M97.39 26.26 C100.66 23.4, 105.35 20.01, 109.9 13.39 M104.28 28.18 C105.74 23.99, 106.73 22.72, 109.49 18.74 M103.05 27.23 C104.77 25.04, 107.55 23.2, 111.05 19.75" stroke="#868e96" stroke-width="0.5" fill="none"></path><path d="M0.57 1.09 C26.18 -0.18, 55.09 -0.92, 111.67 1.67 M-0.73 0.27 C34.29 0.26, 69.7 0.98, 109.95 0.61 M108.31 -0.37 C107.96 10.46, 108.49 20.45, 110.87 26.05 M109.17 -0.45 C109.36 8.54, 110.08 15.92, 109.21 24.02 M111.07 23.36 C83.25 25.58, 52.2 24.14, -1.79 23.8 M110.53 25.86 C85.27 24.64, 60.82 24.72, -0.7 25.75 M1.02 26.26 C0.38 18.53, -0.13 8.37, -1.4 -1.79 M0.9 25.7 C0.67 18.04, -0.31 13.45, -0.18 0.96" stroke="#000000" stroke-width="1" fill="none"></path></g><g stroke-linecap="round" transform="translate(62.11455890020102 188) rotate(0 7 6)"><path d="M0.19 6.79 C0.19 6.79, 0.19 6.79, 0.19 6.79 M0.19 6.79 C0.19 6.79, 0.19 6.79, 0.19 6.79 M2.76 9.4 C5.06 6.23, 7.63 3.28, 8.97 1.37 M2.97 9.18 C5.22 7.21, 7.52 4.28, 10.08 2.29 M6.35 11.11 C8.95 8.75, 10.92 6.74, 12.16 3.63 M6.54 11.28 C8.47 9.75, 9.54 8.16, 12.96 4.65" stroke="#868e96" stroke-width="0.5" fill="none"></path><path d="M8.52 0.88 C10.02 2.13, 12.01 4.64, 13.77 6.84 M8.24 -0.07 C9.61 2.19, 11.87 4.47, 14.08 6.57 M14.63 7.4 C11.23 9.28, 9.98 10.25, 8.71 12.58 M13.77 7.37 C11.62 8.86, 9.49 10.92, 8.32 12.07 M8.18 11.38 C5.51 11.57, 3.47 9.05, 0.7 7.31 M8.14 11.6 C5.86 10.73, 3.78 9.21, -0.18 6.8 M-0.37 6.85 C2.18 4.37, 5.59 2.07, 6.95 0.14 M-0.21 7.4 C3.01 4.92, 5.13 2.73, 8.3 0.43" stroke="#000000" stroke-width="1" fill="none"></path></g><g stroke-linecap="round" transform="translate(90.11455890020102 186) rotate(0 7.5 8)"><path d="M-0.14 9.16 C-0.14 9.16, -0.14 9.16, -0.14 9.16 M-0.14 9.16 C-0.14 9.16, -0.14 9.16, -0.14 9.16 M3.91 12.34 C4.34 10.2, 6.78 6.24, 10.72 2.56 M2.31 11.48 C5.64 9.16, 6.95 6.6, 10.98 2.94 M6.29 14.45 C6.7 12.44, 8.88 9.62, 14.05 5.61 M6.15 14.4 C8.36 11.84, 10.57 8.49, 13.1 5.92" stroke="#868e96" stroke-width="0.5" fill="none"></path><path d="M6.95 0.81 C10.35 4.11, 14.54 7.71, 14.23 9.58 M8.43 0.32 C10.18 2.94, 12.62 6.92, 14.68 9.15 M15.17 8.66 C13.08 10.42, 11.77 11.89, 7.61 16.97 M15.16 8.78 C13.43 11.15, 11.36 12.4, 7.93 15.97 M7.56 16.89 C5.59 14.12, 3.25 11.96, -0.9 9.06 M8.07 16.2 C6.16 14.37, 3.81 12.86, 0.32 9.32 M0.97 8.57 C2.3 7.56, 4.52 3.81, 8.37 -0.23 M-0.11 9.54 C2.42 5.64, 6.51 2.61, 7.67 -0.49" stroke="#000000" stroke-width="1" fill="none"></path></g><g stroke-linecap="round" transform="translate(139.11455890020102 127) rotate(15.572543596810275 10.5 7.5)"><path d="M0.02 7.97 C0.02 7.97, 0.02 7.97, 0.02 7.97 M0.02 7.97 C0.02 7.97, 0.02 7.97, 0.02 7.97 M3.01 10.86 C4.84 8.52, 6.28 5.46, 12.11 0.77 M3.52 9.83 C5.66 7.45, 7.67 4.41, 11.74 0.82 M6.34 11.71 C9.24 11.15, 11.34 7.94, 13.61 3.67 M6.44 12.7 C8.35 10.49, 10.9 7.75, 14.45 3.27 M9.4 13.75 C13.27 13.19, 13.95 10.23, 18.9 6.13 M10.64 14.6 C12.63 11.59, 14.83 8.88, 18.45 4.9" stroke="#868e96" stroke-width="0.5" fill="none"></path><path d="M10.16 -0.51 C14.98 1.79, 16.11 5.33, 21.41 7.42 M10.46 -0.09 C14.68 2.76, 18.02 5.61, 20.73 8.53 M20.83 6.96 C18.3 9.26, 15.97 10.64, 11.16 15.47 M21.45 8.37 C18.07 9.99, 14.95 12.96, 11.49 14.78 M10.33 15.4 C7.06 13.6, 2.75 9.54, -0.23 9.17 M11.16 14.64 C8.23 14.14, 6.7 12.86, 0.61 8.49 M-0.02 7.19 C2.98 4.87, 6.29 1.93, 10.32 0.44 M-0.32 7.77 C3.64 5.64, 6.29 3.78, 11.58 0.32" stroke="#000000" stroke-width="1" fill="none"></path></g><g stroke-linecap="round" transform="translate(9.614558900201018 126.49999999999994) rotate(15.572543596810275 10.5 7.5)"><path d="M0.02 7.97 C0.02 7.97, 0.02 7.97, 0.02 7.97 M0.02 7.97 C0.02 7.97, 0.02 7.97, 0.02 7.97 M4.78 10.57 C6.37 6, 7.45 4.61, 10.47 0.27 M3.44 9.54 C5.32 7.15, 8.34 5.14, 12.16 1.37 M5.76 12.22 C8.62 9.78, 10.97 7.92, 15.62 4.21 M6.59 11.97 C9.34 9.68, 12.88 5.78, 14.16 3.92 M10.91 15.27 C12.98 12.18, 15.26 9.33, 18.27 5.54 M10.13 13.99 C12.2 12.51, 13.07 10.53, 17.94 4.8" stroke="#868e96" stroke-width="0.5" fill="none"></path><path d="M11.38 0.2 C14.77 1.32, 17.12 4.92, 22.24 8.68 M11.19 -0.27 C14.69 2.82, 17.84 5.3, 21.44 7.44 M20.14 7.65 C17.9 11.29, 14.5 13.56, 11.26 15.61 M20.62 7.65 C18.64 9.22, 16.61 10.83, 10.52 14.55 M11.21 14.17 C5.56 13.41, 3.1 10.46, -1.11 7.04 M11.03 15.17 C8.85 13.02, 6.05 11.56, 0.42 8.08 M0.05 8.73 C3.65 4.93, 5.84 2.53, 11.82 0.08 M-0.08 7.53 C1.92 5.97, 4.78 4.09, 10.86 0.63" stroke="#000000" stroke-width="1" fill="none"></path></g></svg>